<svg id="Layer_1" data-name="Layer 1" xmlns="http://www.w3.org/2000/svg" viewBox="0 0 356.89 356.89"><defs><style>.cls-1{fill:#f37521;}.cls-2{fill:#223f99;}.cls-3{fill:#009345;}.cls-4{fill:#fff;}</style></defs><path class="cls-1" d="M178.44,90.67A89.77,89.77,0,0,0,102.49,133l76,43.82,76-43.82A89.76,89.76,0,0,0,178.44,90.67Z"/><path class="cls-2" d="M175.84,269V181.35l-76-43.83a89.44,89.44,0,0,0-10.64,42.32C89.24,227.79,128,267.59,175.84,269Z"/><path class="cls-3" d="M267.54,179.84a89.36,89.36,0,0,0-10.65-42.32l-75.95,43.83V269C228.77,267.59,267.54,227.79,267.54,179.84Z"/><path class="cls-4" d="M162.35,111.53h29.57v6.75H170.78v7.54h10.15q6.65,0,10.13,2.77t3.48,8a10.22,10.22,0,0,1-3.87,8.53q-3.88,3-10.94,3H162.35Zm16.91,30.36a8.2,8.2,0,0,0,5-1.29,4.37,4.37,0,0,0,1.73-3.74c0-3.21-2.24-4.82-6.7-4.82h-8.48v9.85Z"/><path class="cls-4" d="M132.18,210.46h-5.87v14.79h-8.45V188.53h8.45v14.85h6.08l9.66-14.85h9l-12,17.73,12.38,19h-9.65Z"/><path class="cls-4" d="M219.72,210.46h-5.88v14.79h-8.45V188.53h8.45v14.85h6.09l9.65-14.85h9l-12,17.73,12.38,19h-9.66Z"/><path class="cls-2" d="M69.22,165.91l-.35,2.74,6.89.88-.51,3.94-17.11-2.2.5-3.94,6.92.89.37-2.84L59.59,160l.53-4.19,7.55,6.67,9.6-4.64-.58,4.5Z"/><path class="cls-2" d="M79.05,140.38l-2.68,7.56,3,2.67L78,154.47l-13.7-13,1.32-3.72,18.85-1.5-1.4,4Zm-3.28.17-7.14.37,5.31,4.79Z"/><path class="cls-2" d="M80.56,109.32l14.61,9.2-2.1,3.34-11.86-7.47-3.15,5,3,2a36.77,36.77,0,0,1,4.73,3.68,7.32,7.32,0,0,1,2.13,3.19,3.93,3.93,0,0,1-.61,3.25A8.66,8.66,0,0,1,86,133.06l-2.73-2a2.13,2.13,0,0,0,.47-.55,2.07,2.07,0,0,0-.36-2.59,20.88,20.88,0,0,0-4.1-3.42l-5.8-3.94Z"/><path class="cls-2" d="M86.57,101.64l2.77-2.84,8.06,7.84L95.08,92.9l2.62-2.69,12.37,12-2.76,2.83-8-7.83L101.57,111l-2.63,2.7Z"/><path class="cls-2" d="M118.48,75.17,128,89.55l-3.33,2.21-3.91-5.9-6.54,4.34,3.92,5.9-3.33,2.21-9.54-14.39,3.32-2.21,3.77,5.68,6.53-4.34-3.76-5.67Z"/><path class="cls-2" d="M127.22,70.62l3.7-1.45L135,79.65l3.58-13.47,3.5-1.36,6.27,16.08-3.68,1.43L140.6,71.88,137,85.33l-3.52,1.37Z"/><path class="cls-2" d="M167.21,59.78l2.7,17-3.95.62-1.1-7-7.75,1.22,1.11,7-3.95.63-2.7-17.05,4-.63,1.06,6.72,7.75-1.22-1.07-6.72Z"/><path class="cls-2" d="M188.63,63l-8.21-.23-.37,14-4-.11.48-17.26,12.17.34Z"/><path class="cls-2" d="M207.13,63.7a5.91,5.91,0,0,1,2.11,2.65,6,6,0,0,1,.22,3.44,6.12,6.12,0,0,1-1.56,3.07,5.83,5.83,0,0,1-3,1.59,9.58,9.58,0,0,1-4-.06l-3.41-.7-1,4.66-3.91-.81,3.48-16.9,7.32,1.5A9.56,9.56,0,0,1,207.13,63.7Zm-3,7.25A3.1,3.1,0,0,0,205,66.6a4.21,4.21,0,0,0-2.52-1.31l-3.19-.66-1.21,5.87,3.19.66A4.23,4.23,0,0,0,204.14,71Z"/><path class="cls-2" d="M222.9,82.73l-7.4-3.07-2.83,2.83-3.78-1.57,13.72-13,3.65,1.51.51,18.9-3.87-1.6Zm0-3.28V72.3l-5.06,5Z"/><path class="cls-2" d="M247.73,98.73l-3.95,5.57-3-2.14,2.07-2.92-9.93-7-2.07,2.91-3-2.14,4-5.55.56.4c.87.57,1.9.38,3.11-.58a28,28,0,0,0,4.31-4.71l3.28-4.29,10.82,7.68-8.11,11.42Zm-8.71-10a6.84,6.84,0,0,1-2.77,1.81l6.3,4.46,6.22-8.76L244,82.85l-1.52,2A37.28,37.28,0,0,1,239,88.77Z"/><path class="cls-2" d="M251.92,106.4a8.53,8.53,0,0,1,0-4.62,9.29,9.29,0,0,1,6.72-6.29,8.63,8.63,0,0,1,4.61.28,10.67,10.67,0,0,1,6.31,6.22,8.15,8.15,0,0,1,.42,3.78l-3.48-.26a5.53,5.53,0,0,0-1.48-4.55,5.79,5.79,0,0,0-2.47-1.61,5,5,0,0,0-2.77-.09,6.17,6.17,0,0,0-4.18,3.91,5,5,0,0,0-.09,2.77,5.82,5.82,0,0,0,1.44,2.57,5.47,5.47,0,0,0,4.46,1.77l0,3.49a8,8,0,0,1-3.76-.67,10.14,10.14,0,0,1-3.36-2.43A9.94,9.94,0,0,1,251.92,106.4Z"/><path class="cls-2" d="M271.51,121.32,270,119l-5.89,3.69L262,119.31l14.63-9.17,2.1,3.37-5.91,3.7,1.52,2.43,8.32.14,2.24,3.57L274.88,123l-4.48,9.67-2.4-3.85Z"/><path class="cls-2" d="M288.49,130.73l1.38,3.73-10.55,3.89,13.4,3.84L294,145.7l-16.19,6-1.37-3.7L287,144.09l-13.38-3.84-1.3-3.54Z"/><path class="cls-2" d="M296.4,155.24l.55,3.93-11.14,1.55,12.27,6.61.52,3.71-17.1,2.38-.54-3.91L292.07,168l-12.24-6.61-.52-3.73Zm5.28,2.48.37,2.71c-1.18.2-1.68.95-1.5,2.27a2.21,2.21,0,0,0,.66,1.43,1.76,1.76,0,0,0,1.41.35l.37,2.71a3.47,3.47,0,0,1-2.95-.81A5.61,5.61,0,0,1,298.6,163C298.16,159.85,299.19,158.09,301.68,157.72Z"/><path class="cls-2" d="M80,200.35l3.77,13.41-3.06.87L78,205l-3.42,1,1.3,4.6a7.51,7.51,0,0,1,0,5,4.51,4.51,0,0,1-3.18,2.6,4.83,4.83,0,0,1-4.37-.66,8.19,8.19,0,0,1-2.77-4.58L63.39,205ZM68.4,211.9A3.9,3.9,0,0,0,69.61,214a2.07,2.07,0,0,0,1.92.3c1.46-.41,1.9-1.62,1.33-3.65l-1.08-3.84-4.46,1.25Z"/><path class="cls-2" d="M85.77,219.06l1.84,3.52-10,5.2,13.78,2.1,1.73,3.32-15.3,8L76,237.69,86,232.5l-13.75-2.11L70.47,227Z"/><path class="cls-2" d="M96.24,253.41a4.12,4.12,0,0,1-1.46,2.26,4,4,0,0,1-2.79.9,6.61,6.61,0,0,1-3.13-1.08A11.49,11.49,0,0,1,86,252.86a14.43,14.43,0,0,1-1.87-3,12.93,12.93,0,0,1-1-3.45l3-.83a9.3,9.3,0,0,0,.74,2.61,11,11,0,0,0,1.39,2.31,6,6,0,0,0,2.35,1.9,2,2,0,0,0,2.13-.2,1.62,1.62,0,0,0,.64-1.54,4.14,4.14,0,0,0-1-2l-2.63-3.3,2.35-1.87,2.45,3.06a3.07,3.07,0,0,0,1.56,1.16,1.6,1.6,0,0,0,1.48-.31,1.76,1.76,0,0,0,.63-1.75,5.13,5.13,0,0,0-1.12-2.31,9.9,9.9,0,0,0-1.71-1.64,9.28,9.28,0,0,0-2.15-1.21l1.67-2.88a12.68,12.68,0,0,1,4.79,3.74,11.43,11.43,0,0,1,1.87,3.28,6.3,6.3,0,0,1,.34,3.19,3.8,3.8,0,0,1-1.43,2.44,3.75,3.75,0,0,1-2.13.85,4.21,4.21,0,0,1-2.29-.5A4.87,4.87,0,0,1,96.24,253.41Z"/><path class="cls-2" d="M119.66,261.44l-11.15,13.17L105.46,272l4.57-5.4-6-5.07L99.47,267l-3-2.58,11.15-13.17,3,2.58-4.4,5.19,6,5.07,4.4-5.19Z"/><path class="cls-2" d="M129.19,283.25l-1.55,2.8L116,279.56l8.38-15.09,11.41,6.34-1.56,2.8-7.93-4.41-1.83,3.28,7,3.9-1.51,2.71-7-3.89L121,278.69Z"/><path class="cls-2" d="M138.13,289.37a8.58,8.58,0,0,1-2.17-4.08,8.81,8.81,0,0,1,.3-4.75,8.69,8.69,0,0,1,2.62-4,8.57,8.57,0,0,1,4.18-2,10.74,10.74,0,0,1,8.51,2.47,8,8,0,0,1,2.17,3.12l-3.18,1.43a5.49,5.49,0,0,0-3.48-3.29,5.71,5.71,0,0,0-2.93-.24,5.06,5.06,0,0,0-2.48,1.23,5.72,5.72,0,0,0-1.57,2.49,5.88,5.88,0,0,0-.25,2.94,5.08,5.08,0,0,0,1.24,2.48,5.72,5.72,0,0,0,2.49,1.57,5.5,5.5,0,0,0,4.77-.56L150,291.3a7.87,7.87,0,0,1-3.63,1.21,10,10,0,0,1-4.1-.54A9.94,9.94,0,0,1,138.13,289.37Z"/><path class="cls-2" d="M155.73,286.52l6.87,1.22-.54,3-6.87-1.22Z"/><path class="cls-2" d="M175.71,290.31l-2.76-.06-.15,6.95-4-.08.37-17.26,4,.09-.15,7,2.86.06,4.68-6.88,4.22.09L179,288.41l5.63,9-4.53-.09Z"/><path class="cls-2" d="M194.37,295.44a8.65,8.65,0,0,1-5.91-6.83,8.73,8.73,0,0,1,.39-4.72,8.61,8.61,0,0,1,2.76-3.74,10.7,10.7,0,0,1,9.53-1.72A8.77,8.77,0,0,1,205,281a9.11,9.11,0,0,1,1.62,9,8.71,8.71,0,0,1-2.76,3.74,10.67,10.67,0,0,1-9.52,1.72Zm7-4.25a5.19,5.19,0,0,0,1.56-2.28,6.17,6.17,0,0,0-1-5.62,5,5,0,0,0-2.25-1.59,5.8,5.8,0,0,0-5.44,1,5.06,5.06,0,0,0-1.55,2.27,5.68,5.68,0,0,0-.19,2.94,5.76,5.76,0,0,0,1.2,2.69,5.11,5.11,0,0,0,2.25,1.59,5.79,5.79,0,0,0,5.44-1Z"/><path class="cls-2" d="M223.73,269.52l6.6,15.94L226.69,287,221.33,274l-5.47,2.26,1.27,3.38a37.33,37.33,0,0,1,1.73,5.73,7.44,7.44,0,0,1-.11,3.83,3.89,3.89,0,0,1-2.37,2.3,8.77,8.77,0,0,1-1.92.51l-1.07-3.22a2.41,2.41,0,0,0,.7-.18,2.08,2.08,0,0,0,1.2-2.33,21,21,0,0,0-1.36-5.16l-2.45-6.56Z"/><path class="cls-2" d="M241.43,258.05l9.79,14.22L248,274.51,240,263l-4.87,3.36,1.94,3A38.33,38.33,0,0,1,240,274.6a7.45,7.45,0,0,1,.7,3.77,3.93,3.93,0,0,1-1.84,2.75,8.87,8.87,0,0,1-1.78.9l-1.71-2.93a2.13,2.13,0,0,0,.64-.32,2.06,2.06,0,0,0,.69-2.52,20.76,20.76,0,0,0-2.41-4.76l-3.77-5.91Z"/><path class="cls-2" d="M265,254.65l2.29,2.25-9.36,9.54-12.33-12.08,9.13-9.32,2.29,2.25-6.35,6.48,2.68,2.62,5.61-5.72,2.22,2.17-5.61,5.73,2.85,2.79Z"/><path class="cls-2" d="M279.65,233.47l5.74,3.69-2,3.11-3-1.93-6.6,10.24,3,1.93-2,3.11-5.73-3.72.37-.58c.54-.89.3-1.91-.71-3.07a27.79,27.79,0,0,0-4.9-4.1l-4.43-3.09,7.18-11.15,11.77,7.59Zm-9.55,9.15A6.9,6.9,0,0,1,272,245.3l4.18-6.49-9-5.82L264,238l2.08,1.43A36.12,36.12,0,0,1,270.1,242.62Z"/><path class="cls-2" d="M284.8,209.88l-.78,2.39,6.61,2.15-1.22,3.73L282.8,216l-.79,2.44,5.41,5.84L286,228.65l-7-7.72L269.68,223l1.31-4,7.83-1.51.82-2.51L273,212.8l1.21-3.73,6.64,2.16.79-2.43-5.42-5.87,1.31-4,6.32,7.15L294,204l-1.43,4.38Z"/><path class="cls-2" d="M292.33,186.2a3.59,3.59,0,1,0-1.61,4.82A3.6,3.6,0,0,0,292.33,186.2Z"/><path class="cls-2" d="M70.88,186.2A3.59,3.59,0,1,0,69.27,191,3.59,3.59,0,0,0,70.88,186.2Z"/></svg>